<svg width="1238" height="175" xmlns="http://www.w3.org/2000/svg"><path d="M1091 0l18.657 19.079L1218.7 128.244V0h19l-.029 170.307.014 3.813-19.05-19.05L1110 46.097V174h-19V0zm-36 86.935a88.647 88.647 0 01-6.468 33.576 83.77 83.77 0 01-18.883 27.98c-16.58 16.308-38.832 25.46-62.018 25.508a86.192 86.192 0 01-33.305-6.507 88.166 88.166 0 01-28.455-18.87c-16.578-16.13-25.917-38.354-25.868-61.557a86.357 86.357 0 016.467-33.576 83.966 83.966 0 0119.013-28.175C922.034 9.146 944.175.072 967.243 0a87.22 87.22 0 0133.563 6.507 86.284 86.284 0 0128.455 18.676 83.382 83.382 0 0118.883 28.045A89.099 89.099 0 011055 86.935zm-87.37 68.454a64.325 64.325 0 0025.545-5.14 68.6 68.6 0 0021.859-15.032c12.627-12.833 19.615-30.224 19.4-48.282a70.198 70.198 0 00-5.108-26.483c-6.711-16.66-19.745-29.94-36.216-36.902a66.746 66.746 0 00-51.541-.188 63.364 63.364 0 00-21.535 14.836 69.205 69.205 0 00-14.68 22.319 71.05 71.05 0 00-4.98 26.418c.076 27.537 16.349 52.415 41.454 63.378a65.095 65.095 0 0025.803 5.076zM844 0l-18.607 19H701.4L720 0h124zm0 155l-18.607 19H701.4l18.6-19h124zm0-78l-18.607 19H701.4L720 77h124zm-344 97V0h19.876v76.885H644.67V0H665v174h-20.2V95.944H519.875V174H500zm-126.524 0V18.994H303V0h161v18.994h-70.28V174h-20.244zM267 159l-19 15V19.425L267 0v159zm-75.713 15L106 34 20.713 174H0L106 0l106 174h-20.713z" fill="#DCBC65"/></svg>